<svg width="32" height="32" viewBox="0 0 32 32" fill="none" xmlns="http://www.w3.org/2000/svg">
  <defs>
    <linearGradient id="g" x1="2" y1="2" x2="30" y2="30" gradientUnits="userSpaceOnUse">
      <stop stop-color="#38c9ad"/>
      <stop offset="1" stop-color="#0c6f63"/>
    </linearGradient>
  </defs>
  <rect width="32" height="32" rx="8.5" fill="url(#g)"/>
  <path d="M16 7.2c-4.1 0-7 2.7-7 7 0 3.3.9 6.4 2.2 8.7.5.9 1.2 1.7 2 1.7 1.2 0 1.4-2.3 1.7-3.8.2-.9.6-1.6 1.1-1.6.5 0 .9.7 1.1 1.6.3 1.5.5 3.8 1.7 3.8.8 0 1.5-.8 2-1.7 1.3-2.3 2.2-5.4 2.2-8.7 0-4.3-2.9-7-7-7z" fill="#ffffff"/>
  <circle cx="23" cy="10" r="1.6" fill="#ecfdf7" opacity="0.9"/>
</svg>
